<?xml version="1.0" standalone="no"?>
<!DOCTYPE svg PUBLIC "-//W3C//DTD SVG 20010904//EN"
 "http://www.w3.org/TR/2001/REC-SVG-20010904/DTD/svg10.dtd">
<svg version="1.0" xmlns="http://www.w3.org/2000/svg"
 width="16.000000pt" height="16.000000pt" viewBox="0 0 16.000000 16.000000"
 preserveAspectRatio="xMidYMid meet">

<g transform="translate(0.000000,16.000000) scale(0.100000,-0.100000)"
fill="#000000" stroke="none">
<path d="M23 80 c0 -41 2 -58 4 -38 2 21 2 55 0 76 -2 20 -4 3 -4 -38z"/>
<path d="M76 137 c-21 -15 -18 -48 4 -55 13 -5 13 -3 1 11 -16 21 -2 43 32 50
21 4 21 4 1 6 -11 0 -28 -5 -38 -12z"/>
<path d="M113 108 c-4 -7 -8 -17 -8 -22 0 -5 -9 -13 -20 -18 -18 -8 -18 -8 3
-4 20 4 22 1 16 -17 -6 -20 -5 -20 14 3 11 14 24 21 29 17 4 -5 -1 -15 -11
-23 -11 -8 -15 -14 -9 -14 16 0 36 28 28 40 -4 6 -15 8 -26 5 -17 -6 -18 -3
-9 19 10 27 7 35 -7 14z"/>
<path d="M105 9 c16 -4 33 -5 37 -1 4 4 -10 8 -30 9 -37 1 -37 1 -7 -8z"/>
</g>
</svg>
